<?xml version="1.0" standalone="no"?>
<!DOCTYPE svg PUBLIC "-//W3C//DTD SVG 20010904//EN"
 "http://www.w3.org/TR/2001/REC-SVG-20010904/DTD/svg10.dtd">
<svg version="1.0" xmlns="http://www.w3.org/2000/svg"
 width="512.000000pt" height="512.000000pt" viewBox="0 0 512.000000 512.000000"
 preserveAspectRatio="xMidYMid meet">

<g transform="translate(0.000000,512.000000) scale(0.100000,-0.100000)"
fill="#000000" stroke="none">
<path d="M2657 5056 c-191 -71 -248 -290 -114 -442 l41 -46 -20 -57 -19 -56
-90 -7 c-49 -4 -135 -15 -189 -24 -82 -13 -101 -13 -107 -2 -4 7 -41 60 -82
118 l-74 105 25 32 c92 122 53 293 -83 354 -73 34 -127 26 -318 -47 -199 -76
-236 -97 -271 -157 -52 -88 -44 -191 22 -268 46 -53 101 -78 172 -79 l56 0 20
-140 20 -140 -70 -46 c-102 -68 -171 -122 -258 -203 l-76 -71 -78 33 -79 34
-7 58 c-9 72 -44 133 -99 171 -38 26 -50 29 -124 29 -70 0 -87 -3 -119 -25
-56 -38 -207 -244 -223 -305 -36 -138 69 -275 212 -275 28 0 69 9 92 19 l42
20 57 -65 57 -65 -48 -97 c-57 -115 -117 -294 -142 -417 -9 -49 -18 -92 -20
-94 -6 -10 -288 -70 -291 -62 -12 36 -67 92 -113 115 -139 69 -301 -1 -344
-148 -18 -59 -21 -369 -5 -428 28 -100 129 -174 235 -172 103 1 211 79 230
165 4 16 8 29 10 29 11 0 270 -62 277 -66 4 -3 8 -11 8 -19 0 -41 25 -119 43
-136 31 -28 84 -22 110 13 20 27 20 29 3 124 -19 106 -34 137 -74 153 -40 16
-410 101 -441 101 -38 0 -71 -34 -71 -73 0 -51 -19 -105 -43 -122 -32 -23 -82
-19 -114 9 l-28 24 3 184 3 183 29 28 c57 52 134 23 147 -56 7 -44 41 -87 69
-87 30 0 408 90 441 105 45 20 59 47 78 150 30 169 64 269 151 455 56 119 63
139 55 167 -10 33 -211 277 -237 287 -36 14 -65 5 -103 -34 -45 -45 -79 -52
-111 -20 -37 37 -26 70 56 179 82 109 108 125 153 100 22 -13 26 -21 25 -59
-1 -25 -5 -57 -9 -71 -12 -44 26 -73 179 -139 194 -84 193 -84 314 33 102 99
224 194 316 247 100 57 101 61 56 356 -39 254 -52 270 -172 227 -39 -14 -51
-14 -76 -4 -42 18 -56 59 -34 102 15 29 33 38 182 95 91 35 174 64 186 64 24
0 60 -31 69 -60 8 -26 -14 -71 -42 -86 -69 -34 -81 -85 -37 -150 128 -189 229
-327 250 -340 27 -18 60 -16 202 10 45 9 133 19 195 22 164 10 162 8 237 221
29 81 31 96 20 122 -6 16 -24 34 -40 41 -108 45 -116 183 -13 226 31 13 49 14
122 3 75 -10 90 -16 118 -44 28 -28 33 -40 33 -78 0 -50 -33 -100 -73 -113
-12 -3 -32 -16 -44 -27 -27 -25 -28 -48 -9 -206 17 -133 31 -160 97 -179 191
-57 282 -90 388 -142 127 -62 148 -68 184 -48 27 14 337 265 355 286 6 9 12
30 12 47 0 25 -10 41 -50 77 -42 38 -50 51 -50 81 0 40 36 77 76 77 23 0 122
-70 249 -177 60 -51 70 -64 73 -95 6 -72 -61 -100 -137 -56 -56 32 -92 15
-127 -61 -115 -241 -164 -357 -164 -386 0 -21 11 -46 31 -71 54 -68 94 -80
134 -39 29 28 32 70 10 102 -14 20 -11 31 44 150 l58 128 59 1 c76 1 127 18
172 58 75 65 96 184 50 275 -18 35 -56 72 -163 159 -77 62 -162 124 -190 137
-204 100 -409 -114 -300 -313 18 -33 25 -56 19 -60 -6 -4 -55 -44 -110 -88
l-100 -81 -69 35 c-91 46 -210 93 -312 122 l-81 23 -7 69 -7 69 46 42 c158
148 100 401 -107 462 -75 22 -224 29 -270 11z"/>
<path d="M2662 3927 c-29 -31 -29 -77 1 -105 20 -19 35 -22 98 -22 89 0 119
19 119 74 0 56 -32 76 -121 76 -66 0 -78 -3 -97 -23z"/>
<path d="M1935 3804 c-95 -23 -216 -88 -291 -157 -281 -258 -284 -658 -6 -836
147 -93 360 -99 536 -16 60 28 83 64 68 105 -8 21 -2 30 47 76 53 50 58 52 98
47 38 -5 46 -2 72 26 39 41 80 147 93 241 50 343 -259 600 -617 514z"/>
<path d="M4533 3769 c-105 -19 -191 -108 -209 -217 -6 -36 -9 -40 -43 -46 -87
-14 -97 -10 -130 49 -36 63 -60 79 -107 70 -69 -12 -71 -71 -6 -180 67 -113
69 -113 244 -92 179 22 193 30 194 113 1 90 2 94 33 125 23 23 38 29 71 29 61
0 98 -41 138 -153 37 -102 39 -130 12 -174 -37 -62 -116 -61 -180 2 -52 51
-76 47 -195 -31 -166 -110 -178 -128 -151 -230 29 -111 46 -253 47 -381 2
-139 13 -184 50 -204 68 -36 407 -179 425 -179 36 0 64 32 79 89 18 69 38 91
85 91 37 0 61 -17 73 -52 9 -27 -60 -368 -79 -389 -11 -12 -31 -19 -55 -19
-52 0 -79 35 -79 101 0 37 -5 54 -21 70 -21 21 -26 21 -233 15 -116 -4 -228
-12 -248 -17 -47 -12 -71 -43 -99 -126 -12 -36 -48 -117 -80 -180 -38 -74 -59
-128 -59 -149 0 -29 17 -54 103 -157 57 -67 115 -129 130 -137 26 -14 31 -13
77 13 70 38 113 36 156 -7 44 -44 45 -86 5 -147 -52 -78 -86 -104 -137 -104
-39 0 -50 5 -75 33 -27 30 -29 39 -27 98 2 53 -1 68 -17 84 -32 32 -290 140
-333 140 -35 0 -47 -9 -131 -90 -99 -95 -197 -173 -303 -240 -100 -62 -99 -59
-55 -329 34 -206 39 -228 63 -248 30 -27 51 -29 101 -8 19 8 50 15 68 15 55 0
87 -57 61 -108 -13 -25 -39 -39 -181 -96 -91 -36 -174 -66 -186 -66 -32 0 -55
16 -68 48 -17 40 -1 74 51 109 35 23 44 35 46 63 2 31 -13 57 -125 214 -81
113 -140 187 -161 199 -32 19 -33 19 -169 -9 -122 -25 -159 -29 -318 -28 -123
0 -211 6 -279 17 -144 25 -140 29 -297 -218 -143 -224 -151 -247 -98 -287 17
-13 47 -38 66 -56 35 -32 35 -33 29 -94 -8 -71 -18 -94 -44 -102 -18 -6 -289
86 -353 120 -17 8 -37 30 -46 49 -14 29 -15 41 -4 75 18 62 57 82 146 74 103
-9 103 -10 132 238 29 253 31 299 11 326 -8 12 -62 50 -120 85 -125 75 -250
172 -333 257 -63 64 -101 90 -133 90 -29 0 -400 -155 -424 -176 -17 -16 -19
-26 -13 -64 12 -76 9 -100 -15 -125 -29 -30 -88 -34 -118 -7 -11 9 -43 51 -71
93 -60 89 -67 134 -26 174 31 32 75 32 113 0 43 -36 73 -45 105 -31 25 10 275
284 297 326 19 35 9 75 -43 175 -60 115 -86 136 -135 111 -54 -28 -55 -70 -8
-165 l35 -68 -90 -101 -89 -101 -35 15 c-19 8 -61 14 -93 14 -162 0 -275 -147
-231 -303 13 -48 120 -207 170 -251 34 -32 117 -66 159 -66 9 0 40 7 68 15 95
29 159 108 171 213 l6 54 119 49 c65 27 123 49 128 49 6 0 42 -30 82 -67 98
-91 287 -228 383 -278 3 -1 -26 -273 -32 -301 -4 -17 -14 -22 -48 -26 -56 -7
-107 -31 -150 -73 -113 -110 -98 -310 31 -399 52 -35 366 -148 429 -154 104
-9 186 58 210 171 27 131 6 235 -60 295 l-25 24 80 126 c44 70 86 132 92 138
8 9 38 8 116 -3 140 -19 427 -11 560 16 52 10 98 16 101 13 29 -33 159 -225
159 -235 0 -8 -9 -22 -19 -31 -23 -21 -51 -97 -51 -139 0 -82 60 -174 134
-208 77 -35 130 -27 330 52 161 64 186 77 227 118 126 130 67 334 -110 381
-24 6 -59 9 -76 6 l-32 -6 -22 132 c-12 73 -21 138 -21 145 0 6 20 23 45 37
64 38 190 138 267 214 l67 65 85 -38 84 -37 7 -48 c14 -99 96 -196 189 -221
106 -29 210 10 291 109 70 83 88 123 93 199 5 71 -8 116 -48 172 -67 91 -186
126 -306 87 -18 -5 -31 5 -77 62 l-56 68 38 75 c21 41 51 107 67 146 32 84 21
80 206 86 l117 4 12 -36 c25 -79 101 -143 185 -157 92 -14 205 49 241 133 26
63 85 394 79 442 -8 59 -48 126 -95 156 -53 35 -134 51 -188 36 -55 -15 -121
-67 -145 -112 l-19 -37 -128 56 -128 56 -7 127 c-5 113 -35 329 -51 370 -4 11
11 27 51 54 l57 37 55 -26 c116 -57 221 -41 307 47 90 93 98 181 33 356 -47
124 -86 179 -150 212 -51 26 -121 37 -175 28z"/>
<path d="M3224 3750 c-75 -25 -153 -90 -185 -157 -71 -146 20 -322 193 -374
212 -65 428 70 428 266 0 198 -224 334 -436 265z"/>
<path d="M2965 2851 c-55 -24 -66 -89 -21 -128 37 -31 121 -33 160 -2 33 26
37 86 6 114 -23 21 -112 30 -145 16z"/>
<path d="M1355 2615 c-16 -15 -25 -36 -25 -55 0 -49 38 -80 99 -80 64 0 97 15
112 51 9 22 9 36 0 58 -15 36 -48 51 -112 51 -40 0 -55 -5 -74 -25z"/>
<path d="M3445 2601 c-57 -16 -84 -30 -125 -67 -65 -59 -85 -105 -85 -199 0
-94 20 -140 85 -199 58 -52 103 -69 180 -69 77 0 122 17 180 70 120 107 120
289 0 396 -23 22 -57 45 -74 52 -43 18 -124 26 -161 16z m114 -166 c28 -14 61
-68 61 -100 0 -32 -33 -86 -61 -100 -57 -30 -132 -10 -161 43 -7 13 -12 43
-12 65 1 33 8 47 38 74 40 37 87 43 135 18z"/>
<path d="M2326 2521 c-95 -39 -147 -86 -197 -181 -20 -39 -24 -59 -24 -145 0
-118 20 -171 95 -245 171 -171 456 -121 558 98 36 77 38 211 5 284 -30 66
-105 143 -171 175 -74 36 -194 43 -266 14z"/>
<path d="M1482 2084 c-103 -51 -159 -152 -150 -268 16 -193 217 -308 391 -223
96 48 151 137 150 247 0 77 -19 124 -71 182 -80 89 -214 115 -320 62z"/>
<path d="M3270 1777 c-30 -15 -45 -54 -36 -90 10 -41 57 -60 137 -55 83 4 109
23 109 79 0 57 -34 79 -119 79 -36 0 -77 -6 -91 -13z"/>
<path d="M2680 1629 c-139 -63 -200 -225 -134 -357 120 -240 474 -175 501 93
20 193 -190 344 -367 264z m176 -160 c74 -70 30 -189 -71 -189 -81 0 -130 68
-105 146 24 72 120 95 176 43z"/>
<path d="M2052 1517 c-29 -31 -29 -77 1 -105 19 -18 35 -22 86 -22 52 0 66 4
86 25 30 30 32 64 4 99 -18 23 -27 26 -88 26 -58 0 -71 -3 -89 -23z"/>
</g>
</svg>
