<?xml version="1.0" standalone="no"?>
<!DOCTYPE svg PUBLIC "-//W3C//DTD SVG 20010904//EN"
 "http://www.w3.org/TR/2001/REC-SVG-20010904/DTD/svg10.dtd">
<svg version="1.0" xmlns="http://www.w3.org/2000/svg"
 width="512.000000pt" height="512.000000pt" viewBox="0 0 512.000000 512.000000"
 preserveAspectRatio="xMidYMid meet">

<g transform="translate(0.000000,512.000000) scale(0.100000,-0.100000)"
fill="#000000" stroke="none">
<path d="M2657 5056 c-191 -71 -248 -290 -114 -442 l41 -46 -20 -57 -19 -56
-90 -7 c-49 -4 -135 -15 -189 -24 -82 -13 -101 -13 -107 -2 -4 7 -41 60 -82
118 l-74 105 25 32 c92 122 53 293 -83 354 -73 34 -127 26 -318 -47 -199 -76
-236 -97 -271 -157 -52 -88 -44 -191 22 -268 46 -53 101 -78 172 -79 l56 0 20
-140 20 -140 -70 -46 c-102 -68 -171 -122 -258 -203 l-76 -71 -78 33 -79 34
-7 58 c-9 72 -44 133 -99 171 -38 26 -50 29 -124 29 -70 0 -87 -3 -119 -25
-56 -38 -207 -244 -223 -305 -36 -138 69 -275 212 -275 28 0 69 9 92 19 l42
20 57 -65 57 -65 -48 -97 c-57 -115 -117 -294 -142 -417 -9 -49 -18 -92 -20
-94 -6 -10 -288 -70 -291 -62 -12 36 -67 92 -113 115 -139 69 -301 -1 -344
-148 -18 -59 -21 -369 -5 -428 28 -100 129 -174 235 -172 103 1 211 79 230
165 4 16 8 29 10 29 11 0 270 -62 277 -66 4 -3 8 -11 8 -19 0 -41 25 -118 43
-135 37 -35 100 -21 117 25 6 16 3 55 -9 120 -26 138 -20 134 -284 195 -120
27 -225 50 -233 50 -8 0 -26 -11 -39 -25 -20 -19 -25 -34 -25 -73 0 -83 -58
-134 -127 -111 -55 18 -63 46 -63 224 0 207 16 245 103 245 27 0 41 -7 61 -31
14 -17 26 -39 26 -49 0 -34 22 -69 50 -78 21 -8 74 1 236 39 115 27 217 52
227 55 31 10 49 52 73 173 31 158 73 281 145 426 33 69 59 134 59 151 0 35 -8
47 -127 186 -125 146 -138 151 -207 88 -49 -46 -91 -53 -121 -20 -32 36 -23
72 40 157 87 117 104 133 141 133 42 0 79 -42 69 -80 -4 -14 -9 -44 -12 -67
-4 -35 -2 -44 19 -57 46 -30 300 -136 326 -136 32 0 65 21 105 67 50 56 207
183 309 250 145 94 139 73 100 342 -19 125 -40 236 -48 248 -20 32 -57 38
-107 19 -60 -23 -94 -20 -122 9 -31 30 -32 66 -3 100 26 29 314 145 361 145
35 0 77 -41 77 -75 0 -25 -11 -38 -87 -105 -42 -36 -31 -63 102 -255 69 -99
137 -188 153 -198 29 -20 37 -19 187 8 50 9 145 20 213 24 155 9 155 10 217
185 52 148 51 162 -23 205 -81 48 -96 125 -38 189 l35 37 80 -2 c98 -2 143
-15 175 -53 56 -68 37 -146 -48 -188 -26 -13 -52 -34 -58 -47 -14 -31 16 -287
38 -320 17 -26 42 -37 132 -60 102 -26 199 -63 329 -127 95 -46 129 -58 151
-53 26 5 188 130 335 257 76 66 77 92 8 157 -27 25 -52 56 -56 68 -7 26 17 78
40 87 48 18 73 6 211 -105 77 -61 142 -116 146 -122 15 -23 8 -77 -12 -97 -24
-24 -86 -26 -114 -5 -27 21 -79 19 -100 -3 -9 -11 -57 -108 -107 -217 -104
-227 -106 -241 -42 -307 45 -46 101 -53 127 -16 20 28 20 67 1 95 -14 20 -11
31 44 150 l58 128 59 1 c76 1 127 18 172 58 75 65 96 184 50 275 -18 35 -56
72 -163 159 -77 62 -162 124 -190 137 -204 100 -409 -114 -300 -313 18 -33 25
-56 19 -60 -6 -4 -55 -44 -110 -88 l-100 -81 -69 35 c-91 46 -210 93 -312 122
l-81 23 -7 69 -7 69 46 42 c158 148 100 401 -107 462 -75 22 -224 29 -270 11z"/>
<path d="M2665 3925 c-14 -13 -25 -36 -25 -50 0 -14 11 -37 25 -50 21 -22 33
-25 93 -25 55 0 75 4 96 21 34 27 35 71 1 104 -21 22 -33 25 -95 25 -62 0 -74
-3 -95 -25z"/>
<path d="M1951 3804 c-127 -27 -287 -123 -366 -219 -157 -192 -194 -419 -100
-605 56 -111 182 -203 314 -231 122 -25 315 6 403 65 66 44 39 145 -35 133
-18 -3 -63 -16 -102 -31 -77 -28 -187 -35 -260 -15 -149 40 -243 191 -216 349
37 228 264 420 495 420 24 0 73 -9 108 -20 193 -59 268 -273 167 -474 -37 -74
-37 -108 -3 -135 51 -40 92 -24 130 51 59 117 81 229 64 336 -44 276 -305 440
-599 376z"/>
<path d="M4533 3769 c-105 -19 -191 -108 -209 -217 -6 -36 -9 -40 -43 -46 -87
-14 -97 -10 -130 49 -44 78 -84 94 -135 54 -38 -30 -33 -65 24 -162 68 -115
71 -116 257 -89 99 14 151 25 162 37 12 12 16 35 16 91 0 73 1 77 33 105 25
22 42 29 75 29 64 0 91 -28 132 -138 51 -136 45 -191 -27 -228 -45 -23 -92
-11 -139 37 -56 57 -74 54 -213 -42 -153 -106 -154 -108 -121 -255 27 -121 45
-285 45 -411 0 -76 2 -85 28 -112 28 -31 404 -201 443 -201 25 0 69 43 69 67
0 51 22 94 55 110 41 20 74 9 101 -32 16 -25 16 -34 -16 -198 -18 -95 -38
-182 -46 -194 -30 -48 -84 -53 -124 -13 -15 15 -20 34 -20 73 0 44 -4 58 -25
77 l-24 23 -233 -11 c-272 -13 -270 -13 -306 -113 -12 -35 -52 -124 -87 -196
-36 -73 -65 -142 -65 -154 0 -32 16 -55 121 -180 113 -134 131 -144 190 -105
90 60 189 14 189 -87 0 -41 -73 -146 -115 -165 -90 -41 -171 28 -159 134 5 39
2 53 -12 71 -25 28 -292 143 -334 143 -26 0 -47 -14 -118 -83 -111 -105 -161
-146 -281 -227 -56 -38 -102 -77 -109 -93 -12 -24 -9 -56 22 -249 20 -122 43
-232 51 -244 21 -32 57 -37 115 -14 59 23 92 19 120 -17 26 -34 25 -66 -2 -96
-27 -28 -318 -147 -361 -147 -36 0 -77 41 -77 75 0 25 11 38 88 105 41 36 30
61 -109 256 -72 102 -140 189 -151 195 -24 13 -87 8 -203 -16 -110 -22 -368
-30 -480 -16 -201 27 -208 27 -243 -5 -39 -36 -272 -402 -272 -427 0 -32 19
-56 60 -77 61 -31 74 -58 66 -135 -4 -36 -9 -72 -12 -80 -13 -33 -53 -28 -217
31 -191 68 -227 95 -227 164 0 35 6 48 35 77 l36 36 72 -6 c117 -10 114 -15
148 306 21 196 22 221 8 245 -8 15 -59 54 -119 90 -131 79 -223 149 -338 257
-79 75 -94 85 -126 85 -54 0 -414 -148 -434 -178 -13 -20 -13 -31 -2 -78 16
-65 6 -95 -40 -119 -61 -31 -89 -14 -174 107 -60 86 -67 123 -31 166 37 44 90
45 139 1 60 -52 84 -42 194 81 146 162 191 219 198 246 8 30 -75 217 -109 247
-44 39 -117 7 -117 -53 0 -17 16 -61 34 -99 l35 -68 -90 -101 -89 -101 -35 15
c-19 8 -61 14 -93 14 -162 0 -275 -147 -231 -303 13 -48 120 -207 170 -251 34
-32 117 -66 159 -66 9 0 40 7 68 15 95 29 159 108 171 213 l6 54 119 49 c65
27 123 49 128 49 6 0 42 -30 82 -67 98 -91 287 -228 383 -278 3 -1 -26 -273
-32 -301 -4 -17 -14 -22 -48 -26 -56 -7 -107 -31 -150 -73 -113 -110 -98 -310
31 -399 52 -35 366 -148 429 -154 104 -9 186 58 210 171 27 131 6 235 -60 295
l-25 24 80 126 c44 70 86 132 92 138 8 9 38 8 116 -3 140 -19 427 -11 560 16
52 10 98 16 101 13 29 -33 159 -225 159 -235 0 -8 -9 -22 -19 -31 -23 -21 -51
-97 -51 -139 0 -82 60 -174 134 -208 77 -35 130 -27 330 52 161 64 186 77 227
118 126 130 67 334 -110 381 -24 6 -59 9 -76 6 l-32 -6 -22 132 c-12 73 -21
138 -21 145 0 6 20 23 45 37 64 38 190 138 267 214 l67 65 85 -38 84 -37 7
-48 c14 -99 96 -196 189 -221 106 -29 210 10 291 109 70 83 88 123 93 199 5
71 -8 116 -48 172 -67 91 -186 126 -306 87 -18 -5 -31 5 -77 62 l-56 68 38 75
c21 41 51 107 67 146 32 84 21 80 206 86 l117 4 12 -36 c25 -79 101 -143 185
-157 92 -14 205 49 241 133 26 63 85 394 79 442 -8 59 -48 126 -95 156 -53 35
-134 51 -188 36 -55 -15 -121 -67 -145 -112 l-19 -37 -128 56 -128 56 -7 127
c-5 113 -35 329 -51 370 -4 11 11 27 51 54 l57 37 55 -26 c116 -57 221 -41
307 47 90 93 98 181 33 356 -47 124 -86 179 -150 212 -51 26 -121 37 -175 28z"/>
<path d="M3263 3760 c-142 -30 -243 -144 -243 -275 0 -109 64 -201 175 -251
201 -90 444 27 462 223 9 102 -32 189 -116 247 -75 52 -189 75 -278 56z m179
-172 c117 -66 76 -202 -70 -233 -52 -11 -129 12 -168 52 -28 28 -34 41 -34 78
0 110 155 168 272 103z"/>
<path d="M2940 2830 c-27 -27 -26 -81 1 -106 16 -15 36 -19 86 -19 56 0 67 3
84 24 25 30 24 76 -1 101 -16 16 -33 20 -85 20 -52 0 -69 -4 -85 -20z"/>
<path d="M1384 2631 c-26 -11 -54 -49 -54 -73 0 -9 11 -30 24 -45 22 -25 31
-28 86 -28 55 1 65 4 86 28 30 35 30 59 2 92 -18 19 -35 27 -73 30 -27 3 -60
1 -71 -4z"/>
<path d="M3395 2581 c-126 -57 -189 -192 -152 -322 58 -199 325 -257 460 -99
150 175 28 441 -202 440 -42 0 -81 -7 -106 -19z m165 -146 c54 -28 75 -98 46
-154 -21 -40 -59 -61 -110 -61 -85 0 -138 86 -101 164 29 62 102 84 165 51z"/>
<path d="M2364 2531 c-95 -23 -195 -107 -237 -199 -33 -72 -31 -207 4 -283 33
-70 91 -130 161 -165 76 -39 190 -45 273 -13 75 28 155 102 192 178 24 48 28
69 28 141 0 97 -25 165 -86 234 -80 92 -216 135 -335 107z m186 -175 c126 -83
115 -267 -21 -336 -42 -22 -112 -26 -156 -9 -38 14 -92 67 -109 106 -30 70 -9
167 48 220 62 59 166 67 238 19z"/>
<path d="M1530 2101 c-86 -27 -161 -101 -186 -187 -51 -177 77 -344 265 -344
193 0 322 214 235 388 -57 115 -196 178 -314 143z m130 -156 c37 -19 60 -62
60 -112 0 -66 -52 -113 -125 -113 -50 0 -104 51 -111 105 -5 31 -1 48 18 75
40 59 99 75 158 45z"/>
<path d="M3284 1780 c-26 -10 -54 -48 -54 -71 0 -9 9 -28 21 -43 19 -24 26
-26 105 -26 71 0 87 3 104 20 38 38 22 100 -31 119 -37 13 -115 13 -145 1z"/>
<path d="M2696 1635 c-52 -18 -84 -43 -123 -94 -63 -82 -70 -176 -20 -273 68
-131 225 -181 356 -113 50 25 109 100 126 160 21 72 13 135 -26 203 -63 110
-195 159 -313 117z m143 -150 c16 -8 36 -31 46 -52 16 -33 16 -41 4 -77 -29
-81 -121 -107 -180 -51 -95 92 12 241 130 180z"/>
<path d="M2055 1515 c-14 -13 -25 -36 -25 -50 0 -14 11 -37 25 -50 20 -21 34
-25 83 -25 70 0 99 18 108 67 5 26 1 37 -19 57 -22 22 -35 26 -87 26 -51 0
-65 -4 -85 -25z"/>
</g>
</svg>
